<?xml version="1.0" encoding="UTF-8"?> <svg xmlns="http://www.w3.org/2000/svg" xmlns:xlink="http://www.w3.org/1999/xlink" viewBox="0 0 670.44 175.83"> <defs> <style>.cls-1{fill:url(#Безымянный_градиент_8);}.cls-2{fill:url(#Безымянный_градиент_15);}</style> <linearGradient id="Безымянный_градиент_8" y1="68.6" x2="164.17" y2="68.6" gradientUnits="userSpaceOnUse"> <stop offset="0" stop-color="#00b836"></stop> <stop offset="1" stop-color="#00ff36"></stop> </linearGradient> <linearGradient id="Безымянный_градиент_15" x1="2.5" y1="107.42" x2="178.65" y2="107.42" gradientUnits="userSpaceOnUse"> <stop offset="0" stop-color="#006a9a"></stop> <stop offset="1" stop-color="#008d9a"></stop> </linearGradient> </defs> <g id="Слой_2" data-name="Слой 2"> <g id="Слой_1-2" data-name="Слой 1"> <path class="cls-1" d="M100.59.23a122.19,122.19,0,0,1,13.25,2c10.49,2.19,27.7,6.61,43.15,19.53a80.14,80.14,0,0,1,7,7.29.76.76,0,0,1,.1.92h0a.77.77,0,0,1-1,.32c-3.88-1.55-23.52-9.78-33.21-11.77-23.74-4.88-46.58-1.7-68.7,7.78A67.19,67.19,0,0,0,34.65,46.1c-9,11.2-5.56,30.41,4.8,38.47,4.37,3.4,9.44,4.32,14.73,4.85,6.33.64,12.61,1.64,18.34,4.66,6.76,3.57,11.34,9,12.84,16.51,2.65,13.2-7.88,26.1-21.41,26.6-7,.26-13.38-1.86-19.57-4.8-14.86-7.06-27.64-16.63-35.61-31.33C-.57,83.82-3.26,65.8,4.7,47.21c6.14-14.35,16.4-22.33,23-27.3C45.42,6.41,63.74,3.21,73.8,1.57A120.45,120.45,0,0,1,100.59.23Z"></path> <path class="cls-2" d="M2.5,119.5a.42.42,0,0,1,.72-.32c1.75,1.91,4.09,4.54,5.61,6.26,16.53,18.65,37.27,28.86,62.1,31a115.13,115.13,0,0,0,41.32-3.61,64.7,64.7,0,0,0,24.12-12.27c10.13-8.39,13.38-19.6,12.91-32.2-.4-10.7-5.41-18.81-14.82-23.86-4-2.14-8.48-3.45-12.82-4.9-2.9-1-6-1.39-8.91-2.25C101.8,74.12,95.36,63.49,97.92,53c2.09-8.6,9-13.85,18.66-14A50,50,0,0,1,143,45.77c16.94,9.91,29.21,23.59,33.83,43.09,6.4,27.09-3.51,59-35.91,75.6-18.88,9.68-39,12.63-59.91,10.9a104.27,104.27,0,0,1-62.47-26.85,49.92,49.92,0,0,1-15.41-25A30.93,30.93,0,0,1,2.5,119.5Z"></path> <path d="M251.26,98.3l-5-13.88H215.6L210.46,98.3H199l24.81-64.79H239L263,98.3Zm-31.89-24h23.34L232.15,44.9h-1.84Z"></path> <path d="M264.87,84.88l10.2-1.74c1.56,4.5,5.6,7.07,11,7.07,4.22,0,8.27-1.47,8.27-5.24s-4.69-5-10.11-6.52c-7.63-2.11-16.82-4.78-16.82-14.8,0-9.56,8.55-14.06,18.29-14.06,9.47,0,16.73,5.24,19.39,13.6l-9.83,1.66a9.9,9.9,0,0,0-9.47-6.25c-3.95,0-7.44,1.65-7.44,4.78,0,3.86,4.87,5.33,10.47,6.89,7.54,2.11,16.36,5,16.36,14.43,0,7.72-6.25,14.52-19.94,14.52C274.42,99.22,266.89,93.7,264.87,84.88Z"></path> <path d="M354.11,71.46V98.3h-7.82l-2.2-7.54a17.63,17.63,0,0,1-15.35,8.46c-9.74,0-16.63-6.34-16.63-15.26s7-15,21-15h10.29c-.45-6.25-3.85-10.38-9.65-10.38a10.49,10.49,0,0,0-9.55,5.7l-9.74-1.66c2.38-8.27,10.56-13,19.85-13C346.57,49.59,354.11,57.59,354.11,71.46Zm-10.57,5.79h-10c-8.09,0-10.75,2.58-10.75,6.25,0,4.14,3.31,6.8,8.45,6.8C338.57,90.3,343.54,85.07,343.54,77.25Z"></path> <path d="M362.84,74.4c0-14.42,9.65-24.81,23.34-24.81a22.92,22.92,0,0,1,17.65,8.18V33.51H414.4V98.3h-7.91l-2.2-7.72a23.28,23.28,0,0,1-18.11,8.64C372.49,99.22,362.84,88.83,362.84,74.4Zm41,0c0-9-6.16-15.34-15.08-15.34S373.87,65.4,373.87,74.4s6.06,15.35,14.88,15.35S403.83,83.41,403.83,74.4Z"></path> <path d="M466.05,71.46V98.3h-7.82L456,90.76a17.63,17.63,0,0,1-15.35,8.46c-9.74,0-16.63-6.34-16.63-15.26s7-15,21-15h10.3c-.46-6.25-3.86-10.38-9.65-10.38a10.49,10.49,0,0,0-9.56,5.7l-9.74-1.66c2.39-8.27,10.57-13,19.85-13C458.51,49.59,466.05,57.59,466.05,71.46Zm-10.57,5.79h-10c-8.09,0-10.75,2.58-10.75,6.25,0,4.14,3.31,6.8,8.45,6.8C450.52,90.3,455.48,85.07,455.48,77.25Z"></path> <path d="M478,98.3V33.51h10.56V98.3Z"></path> <path d="M524,98.3V33.51h23c13.42,0,23.44,9,23.44,21.87s-10,21.87-23.44,21.87H535v21Zm11-31.16h11.94c7.17,0,12.13-4.77,12.13-11.76s-5-11.76-12.13-11.76H535Z"></path> <path d="M616,71.46V98.3h-7.81L606,90.76a17.63,17.63,0,0,1-15.35,8.46C580.93,99.22,574,92.88,574,84s7-15,21-15h10.3c-.46-6.25-3.86-10.38-9.65-10.38a10.49,10.49,0,0,0-9.56,5.7l-9.74-1.66c2.39-8.27,10.56-13,19.85-13C608.5,49.59,616,57.59,616,71.46Zm-10.57,5.79h-10c-8.09,0-10.75,2.58-10.75,6.25,0,4.14,3.31,6.8,8.45,6.8C600.5,90.3,605.47,85.07,605.47,77.25Z"></path> <path d="M659.69,50.51h10.75l-19.57,53.76c-3.22,8.92-8,12.87-16.82,12.87h-7.26l-.92-9.65h8.92c3.49,0,5.14-1.29,6.52-5.15l.55-1.47L620.63,50.51h11.31L646,85h1.47Z"></path> <path d="M217.8,143.31,216,138.16H204.57l-1.91,5.15h-4.27l9.21-24.06h5.63l8.94,24.06ZM206,134.4h8.66l-3.92-10.91H210Z"></path> <path d="M223.7,135.53v-3.69h10.82v3.69Z"></path> <path d="M238.61,150.3V125.57h2.94l.82,2.86a8.62,8.62,0,0,1,6.72-3.21c5.08,0,8.66,3.86,8.66,9.22s-3.58,9.21-8.66,9.21a8.47,8.47,0,0,1-6.55-3v9.69Zm15-15.86a5.56,5.56,0,1,0-5.53,5.69A5.36,5.36,0,0,0,253.66,134.44Z"></path> <path d="M275.73,133.34v10h-2.9l-.82-2.8a6.54,6.54,0,0,1-5.7,3.14c-3.61,0-6.17-2.36-6.17-5.66s2.59-5.57,7.81-5.57h3.82c-.17-2.32-1.43-3.85-3.58-3.85a3.91,3.91,0,0,0-3.55,2.11l-3.61-.61c.88-3.07,3.92-4.85,7.37-4.85C272.93,125.22,275.73,128.19,275.73,133.34Zm-3.92,2.15h-3.72c-3,0-4,1-4,2.32,0,1.54,1.23,2.53,3.14,2.53C270,140.34,271.81,138.39,271.81,135.49Z"></path> <path d="M291.94,125.57h4l-7.27,20c-1.19,3.31-3,4.77-6.24,4.77h-2.7l-.34-3.58h3.31c1.3,0,1.91-.48,2.42-1.91l.21-.55-7.88-18.69h4.19l5.22,12.79h.55Z"></path> </g> </g> </svg> 