<svg xmlns="http://www.w3.org/2000/svg" viewBox="0 0 100 100" preserveAspectRatio="xMidYMid" style="shape-rendering: auto; display: block; background: rgb(255, 253, 253);" width="116" height="116" xmlns:xlink="http://www.w3.org/1999/xlink"><g><g transform="rotate(0 50 50)">
  <rect x="48.5" y="24" rx="1.5" ry="4.32" width="3" height="12" fill="#006a9a">
    <animate attributeName="opacity" values="1;0" keyTimes="0;1" dur="1.0101010101010102s" begin="-0.925925925925926s" repeatCount="indefinite"></animate>
  </rect>
</g><g transform="rotate(30 50 50)">
  <rect x="48.5" y="24" rx="1.5" ry="4.32" width="3" height="12" fill="#006a9a">
    <animate attributeName="opacity" values="1;0" keyTimes="0;1" dur="1.0101010101010102s" begin="-0.8417508417508418s" repeatCount="indefinite"></animate>
  </rect>
</g><g transform="rotate(60 50 50)">
  <rect x="48.5" y="24" rx="1.5" ry="4.32" width="3" height="12" fill="#006a9a">
    <animate attributeName="opacity" values="1;0" keyTimes="0;1" dur="1.0101010101010102s" begin="-0.7575757575757577s" repeatCount="indefinite"></animate>
  </rect>
</g><g transform="rotate(90 50 50)">
  <rect x="48.5" y="24" rx="1.5" ry="4.32" width="3" height="12" fill="#006a9a">
    <animate attributeName="opacity" values="1;0" keyTimes="0;1" dur="1.0101010101010102s" begin="-0.6734006734006734s" repeatCount="indefinite"></animate>
  </rect>
</g><g transform="rotate(120 50 50)">
  <rect x="48.5" y="24" rx="1.5" ry="4.32" width="3" height="12" fill="#006a9a">
    <animate attributeName="opacity" values="1;0" keyTimes="0;1" dur="1.0101010101010102s" begin="-0.5892255892255893s" repeatCount="indefinite"></animate>
  </rect>
</g><g transform="rotate(150 50 50)">
  <rect x="48.5" y="24" rx="1.5" ry="4.32" width="3" height="12" fill="#006a9a">
    <animate attributeName="opacity" values="1;0" keyTimes="0;1" dur="1.0101010101010102s" begin="-0.5050505050505051s" repeatCount="indefinite"></animate>
  </rect>
</g><g transform="rotate(180 50 50)">
  <rect x="48.5" y="24" rx="1.5" ry="4.32" width="3" height="12" fill="#006a9a">
    <animate attributeName="opacity" values="1;0" keyTimes="0;1" dur="1.0101010101010102s" begin="-0.4208754208754209s" repeatCount="indefinite"></animate>
  </rect>
</g><g transform="rotate(210 50 50)">
  <rect x="48.5" y="24" rx="1.5" ry="4.32" width="3" height="12" fill="#006a9a">
    <animate attributeName="opacity" values="1;0" keyTimes="0;1" dur="1.0101010101010102s" begin="-0.3367003367003367s" repeatCount="indefinite"></animate>
  </rect>
</g><g transform="rotate(240 50 50)">
  <rect x="48.5" y="24" rx="1.5" ry="4.32" width="3" height="12" fill="#006a9a">
    <animate attributeName="opacity" values="1;0" keyTimes="0;1" dur="1.0101010101010102s" begin="-0.25252525252525254s" repeatCount="indefinite"></animate>
  </rect>
</g><g transform="rotate(270 50 50)">
  <rect x="48.5" y="24" rx="1.5" ry="4.32" width="3" height="12" fill="#006a9a">
    <animate attributeName="opacity" values="1;0" keyTimes="0;1" dur="1.0101010101010102s" begin="-0.16835016835016836s" repeatCount="indefinite"></animate>
  </rect>
</g><g transform="rotate(300 50 50)">
  <rect x="48.5" y="24" rx="1.5" ry="4.32" width="3" height="12" fill="#006a9a">
    <animate attributeName="opacity" values="1;0" keyTimes="0;1" dur="1.0101010101010102s" begin="-0.08417508417508418s" repeatCount="indefinite"></animate>
  </rect>
</g><g transform="rotate(330 50 50)">
  <rect x="48.5" y="24" rx="1.5" ry="4.32" width="3" height="12" fill="#006a9a">
    <animate attributeName="opacity" values="1;0" keyTimes="0;1" dur="1.0101010101010102s" begin="0s" repeatCount="indefinite"></animate>
  </rect>
</g><g></g></g><!-- [ldio] generated by https://loading.io --></svg>